<?xml version="1.0" encoding="utf-8"?>
<!-- Generator: Adobe Illustrator 16.0.4, SVG Export Plug-In . SVG Version: 6.00 Build 0)  -->
<!DOCTYPE svg PUBLIC "-//W3C//DTD SVG 1.1//EN" "http://www.w3.org/Graphics/SVG/1.1/DTD/svg11.dtd">
<svg version="1.1" id="Layer_1" xmlns="http://www.w3.org/2000/svg" xmlns:xlink="http://www.w3.org/1999/xlink" x="0px" y="0px"
	 width="96px" height="141px" viewBox="0 0 96 141" enable-background="new 0 0 96 141" xml:space="preserve">
<g>
	<g>
		<path fill="#FFCC00" d="M61.1,25c6.7,13,10.1,28.7,10.1,47.2c0,18.4-3.4,34.2-10.1,47.2c-3.2,6.2-6.7,10.9-10.6,14.1
			c-4,3.5-8.3,5.2-13,5.4c3,0,9,0,18.2,0.1c9.5,0,17.7-6.5,24.4-19.6c6.8-13,10.2-28.7,10.2-47.2c0-18.4-3.4-34.1-10.2-47.2
			C73.4,12,65.2,5.5,55.7,5.5L37.3,5.4c1.4,0.1,2.8,0.4,4.2,0.8l1.4,0.2C49.8,8.7,55.8,14.9,61.1,25z"/>
		<path fill="#FFED00" d="M71.2,72.2c0-18.5-3.4-34.2-10.1-47.2C55.8,14.9,49.8,8.7,42.9,6.4l-1.4-0.2l-5-0.8
			C27,5.5,18.9,12,12.1,25C5.4,38,2,53.7,2,72.2c0,18.4,3.4,34.2,10.1,47.2c6.8,13,15,19.5,24.5,19.5c0.3,0,0.5,0,0.9,0
			c4.7-0.2,9-1.9,13-5.4c3.9-3.2,7.4-7.9,10.6-14.1C67.8,106.4,71.2,90.6,71.2,72.2z M51.5,59.9c0-5.4-0.9-9.7-2.7-12.8
			C50.6,50.2,51.5,54.5,51.5,59.9c0,18.2-5.4,27.2-16.4,27.2c-6.1,0-10.2-1.4-12.4-4.4c-1.8-2.5-2.8-7.3-2.8-14.4
			c0-6.7,1-12.1,2.8-16.2c-1.6,0.3-3,0.4-4.2,0.5c1.2-0.1,2.6-0.2,4.2-0.5c-1.8,4.1-2.8,9.5-2.8,16.2c0,7.1,1,11.9,2.8,14.4
			c2.2,3,6.3,4.4,12.4,4.4C46.1,87.1,51.5,78.1,51.5,59.9z M52,65.2c3.1-0.4,4.8-0.6,5.1-0.6C56.8,64.6,55.1,64.8,52,65.2z
			 M52.8,46.5v-1.8c-2.6-7-4.2-10.9-4.7-11.6L48,33c-1.2,1.8-2.1,3.1-2.8,3.7c-3.6-2.2-5.7-3.4-6.2-3.4c-0.4,0-1,0.7-2.1,2l-1.5,2
			c-3.6-1.8-5.5-2.7-6-2.7c-2.3,3.3-3.5,5.1-3.5,5.3c-2.4-1.4-3.8-2.1-4.2-2.3h-0.3c0,0.6-0.1,2-0.4,4.3c-0.2-0.1-1.2-0.5-2.8-1.4
			c-1.5-0.8-2.4-1.3-2.5-1.5h-0.1v3.3c0.3,1.3,0.5,3.4,0.8,6c0.2,2.2,0.7,3.6,1.5,4.3c-0.8-0.7-1.3-2.1-1.5-4.3
			c-0.3-2.6-0.5-4.7-0.8-6V39h0.1c0.1,0.2,1,0.7,2.5,1.5c1.6,0.9,2.6,1.3,2.8,1.4c0.3-2.3,0.4-3.7,0.4-4.3h0.3
			c0.4,0.2,1.8,0.9,4.2,2.3c0-0.2,1.2-2,3.5-5.3c0.5,0,2.4,0.9,6,2.7l1.5-2c1.1-1.3,1.7-2,2.1-2c0.5,0,2.6,1.2,6.2,3.4
			c0.7-0.6,1.6-1.9,2.8-3.7l0.1,0.1c0.5,0.7,2.1,4.6,4.7,11.6V46.5c-0.9,0-2.1,0.1-3.7,0.3C50.7,46.6,51.9,46.5,52.8,46.5z
			 M55.3,101.9c-1.1-1-2.9-1.5-5.6-1.5C52.4,100.4,54.2,100.9,55.3,101.9c-1,1-1.4,1.5-1.4,1.6c0,0.9,0.7,1.4,2,1.4v0.2
			c-3.8,2.6-7,3.9-9.5,4c-0.5-0.7-0.7-1.7-0.6-2.9c-0.1,1.2,0.1,2.2,0.6,2.9c2.5-0.1,5.7-1.4,9.5-4v-0.2c-1.3,0-2-0.5-2-1.4
			C53.9,103.4,54.3,102.9,55.3,101.9z M37.1,49.2c4.4-1,8-1.7,10.8-2.2C45.1,47.5,41.5,48.2,37.1,49.2c-5.2,1.2-9.4,2.1-12.9,2.7
			C27.7,51.3,31.9,50.4,37.1,49.2z M47.1,57.9c0-1.7-1-2.6-2.9-2.5C46.1,55.3,47.1,56.2,47.1,57.9c0,2-1.2,3-3.7,3
			c-1.7,0-2.5-0.6-2.5-1.9c0-0.6,0.3-1.3,0.9-2.1c0.7-0.7,1.3-1.1,2-0.9c-0.7-0.2-1.3,0.2-2,0.9c-0.6,0.8-0.9,1.5-0.9,2.1
			c0,1.3,0.8,1.9,2.5,1.9C45.9,60.9,47.1,59.9,47.1,57.9z M39.1,97.7c0.2-0.2,2.8-1.6,7.8-4.3c1.1,5.9,1.7,9,1.8,9.3
			c-6,3.9-11.1,5.9-15.3,5.9c-8.1-1.8-12.1-3.5-12.1-4.8c0.2-1.9,0.3-3.3,0.3-4.4v-2.7v2.7c0,1.1-0.1,2.5-0.3,4.4
			c0,1.3,4,3,12.1,4.8c4.2,0,9.3-2,15.3-5.9c-0.1-0.3-0.7-3.4-1.8-9.3C41.9,96.1,39.3,97.5,39.1,97.7c-2.6,1.1-5.5,1.7-8.7,1.7
			c-1.9,0-4.5-1.2-8-3.5c3.5,2.3,6.1,3.5,8,3.5C33.6,99.4,36.5,98.8,39.1,97.7z M22.6,109.1c0.1-1,0.2-1.6,0.4-1.9
			C22.8,107.5,22.7,108.1,22.6,109.1h-1.5c-4.2-0.6-6.6-1.1-7.2-1.7c0.6,0,1.2-0.4,2.1-1.2c-2-1.1-3.3-2.2-3.9-3.3h0.2
			c2.6,0,5-0.5,7.1-1.4c-2.1,0.9-4.5,1.4-7.1,1.4h-0.2c0.6,1.1,1.9,2.2,3.9,3.3c-0.9,0.8-1.5,1.2-2.1,1.2c0.6,0.6,3,1.1,7.2,1.7
			H22.6z M45.4,71.5c1-0.2,2.3-0.4,3.9-0.5C47.7,71.1,46.4,71.3,45.4,71.5z"/>
		<path fill="#FFCC00" d="M36.5,5.4l5,0.8c-1.4-0.4-2.8-0.7-4.2-0.8h-0.7H36.5z"/>
		<path fill="none" stroke="#000000" stroke-width="4" stroke-linecap="round" stroke-linejoin="round" stroke-miterlimit="10" d="
			M48.8,47.1c1.8,3.1,2.7,7.4,2.7,12.8c0,18.2-5.4,27.2-16.4,27.2c-6.1,0-10.2-1.4-12.4-4.4c-1.8-2.5-2.8-7.3-2.8-14.4
			c0-6.7,1-12.1,2.8-16.2c-1.6,0.3-3,0.4-4.2,0.5"/>
		<path fill="none" stroke="#000000" stroke-width="4" stroke-linecap="round" stroke-linejoin="round" stroke-miterlimit="10" d="
			M57.1,64.6c-0.3,0-2,0.2-5.1,0.6"/>
		<path fill="none" stroke="#000000" stroke-width="4" stroke-linecap="round" stroke-linejoin="round" stroke-miterlimit="10" d="
			M17.9,52.6c-0.8-0.7-1.3-2.1-1.5-4.3c-0.3-2.6-0.5-4.7-0.8-6V39h0.1c0.1,0.2,1,0.7,2.5,1.5c1.6,0.9,2.6,1.3,2.8,1.4
			c0.3-2.3,0.4-3.7,0.4-4.3h0.3c0.4,0.2,1.8,0.9,4.2,2.3c0-0.2,1.2-2,3.5-5.3c0.5,0,2.4,0.9,6,2.7l1.5-2c1.1-1.3,1.7-2,2.1-2
			c0.5,0,2.6,1.2,6.2,3.4c0.7-0.6,1.6-1.9,2.8-3.7l0.1,0.1c0.5,0.7,2.1,4.6,4.7,11.6v1.8c-0.9,0-2.1,0.1-3.7,0.3"/>
		<path fill="none" stroke="#000000" stroke-width="4" stroke-linecap="round" stroke-linejoin="round" stroke-miterlimit="10" d="
			M37.5,138.9c4.7-0.2,9-1.9,13-5.4c3.9-3.2,7.4-7.9,10.6-14.1c6.7-13,10.1-28.8,10.1-47.2c0-18.5-3.4-34.2-10.1-47.2
			C55.8,14.9,49.8,8.7,42.9,6.4"/>
		<path fill="none" stroke="#000000" stroke-width="4" stroke-linecap="round" stroke-linejoin="round" stroke-miterlimit="10" d="
			M37.5,138.9c3,0,9,0,18.2,0.1c9.5,0,17.7-6.5,24.4-19.6c6.8-13,10.2-28.7,10.2-47.2c0-18.4-3.4-34.1-10.2-47.2
			C73.4,12,65.2,5.5,55.7,5.5L37.3,5.4"/>
		<path fill="none" stroke="#000000" stroke-width="4" stroke-linecap="round" stroke-linejoin="round" stroke-miterlimit="10" d="
			M49.7,100.4c2.7,0,4.5,0.5,5.6,1.5c-1,1-1.4,1.5-1.4,1.6c0,0.9,0.7,1.4,2,1.4v0.2c-3.8,2.6-7,3.9-9.5,4c-0.5-0.7-0.7-1.7-0.6-2.9"
			/>
		<path fill="none" stroke="#000000" stroke-width="4" stroke-linecap="round" stroke-linejoin="round" stroke-miterlimit="10" d="
			M41.5,6.2c-1.4-0.4-2.8-0.7-4.2-0.8"/>
		<path fill="none" stroke="#000000" stroke-width="4" stroke-linecap="round" stroke-linejoin="round" stroke-miterlimit="10" d="
			M37.3,5.4h-0.7h-0.1C27,5.5,18.9,12,12.1,25C5.4,38,2,53.7,2,72.2c0,18.4,3.4,34.2,10.1,47.2c6.8,13,15,19.5,24.5,19.5
			c0.3,0,0.5,0,0.9,0"/>
		<path fill="none" stroke="#000000" stroke-width="4" stroke-linecap="round" stroke-linejoin="round" stroke-miterlimit="10" d="
			M47.9,47c-2.8,0.5-6.4,1.2-10.8,2.2c-5.2,1.2-9.4,2.1-12.9,2.7"/>
		<path fill="none" stroke="#000000" stroke-width="4" stroke-linecap="round" stroke-linejoin="round" stroke-miterlimit="10" d="
			M44.2,55.4c1.9-0.1,2.9,0.8,2.9,2.5c0,2-1.2,3-3.7,3c-1.7,0-2.5-0.6-2.5-1.9c0-0.6,0.3-1.3,0.9-2.1c0.7-0.7,1.3-1.1,2-0.9"/>
		<path fill="none" stroke="#000000" stroke-width="4" stroke-linecap="round" stroke-linejoin="round" stroke-miterlimit="10" d="
			M21.6,96.7v2.7c0,1.1-0.1,2.5-0.3,4.4c0,1.3,4,3,12.1,4.8c4.2,0,9.3-2,15.3-5.9c-0.1-0.3-0.7-3.4-1.8-9.3c-5,2.7-7.6,4.1-7.8,4.3
			c-2.6,1.1-5.5,1.7-8.7,1.7c-1.9,0-4.5-1.2-8-3.5"/>
		<path fill="none" stroke="#000000" stroke-width="4" stroke-linecap="round" stroke-linejoin="round" stroke-miterlimit="10" d="
			M23,107.2c-0.2,0.3-0.3,0.9-0.4,1.9h-1.5c-4.2-0.6-6.6-1.1-7.2-1.7c0.6,0,1.2-0.4,2.1-1.2c-2-1.1-3.3-2.2-3.9-3.3h0.2
			c2.6,0,5-0.5,7.1-1.4"/>
		<path fill="none" stroke="#000000" stroke-width="4" stroke-linecap="round" stroke-linejoin="round" stroke-miterlimit="10" d="
			M49.3,71c-1.6,0.1-2.9,0.3-3.9,0.5"/>
	</g>
</g>
</svg>
