<?xml version="1.0" encoding="utf-8"?>
<!-- Generator: Adobe Illustrator 16.0.4, SVG Export Plug-In . SVG Version: 6.00 Build 0)  -->
<!DOCTYPE svg PUBLIC "-//W3C//DTD SVG 1.1//EN" "http://www.w3.org/Graphics/SVG/1.1/DTD/svg11.dtd">
<svg version="1.1" id="Layer_1" xmlns="http://www.w3.org/2000/svg" xmlns:xlink="http://www.w3.org/1999/xlink" x="0px" y="0px"
	 width="200px" height="264px" viewBox="0 0 200 264" enable-background="new 0 0 200 264" xml:space="preserve">
<g>
	<path fill="#D7B13B" d="M144.8,10l0.2,1L144.8,10l-77,118.9l0.5,0.4c6.6,0,12.6,0.6,17.8,1.9L166.8,6.1L144.8,10z"/>
	<path fill="#CB6E33" d="M193.8,40l-2.1-18.9l-81.4,122.8l-1,1.6c2.5,3.3,5.1,7.5,7.7,12.5L193.8,40z"/>
	<path fill="#D7B13B" d="M191.7,21.1c-6.9-2.7-15.2-7.7-24.9-15L86.1,131.2c7.2,1.6,13.1,4.5,17.8,8.5l6.4,4.2L191.7,21.1z"/>
	<path fill="#999999" d="M111,179.3c0.4-2.9,1.5-5.7,3.2-8.3c1-1.5,2.5-3.6,4.6-6.4l0.8-1.2L117,158c-2.6-5-5.2-9.2-7.7-12.5
		c-1.8-2.4-3.6-4.3-5.4-5.8c-4.7-4-10.6-6.9-17.8-8.5c-5.2-1.3-11.2-1.9-17.8-1.9h-0.8h-0.1c-3.8,0-6.3,0.2-7.3,0.5l-0.9,0.6
		c-0.2,0.3-2.8,5-7.9,14.2c-0.4,0.8-2.4,2.3-6,4.3c-2.7,1.5-3.8,3.5-3.3,5.9c0.4,1.7,0.2,2.9-0.6,3.7c-0.5,0.4-1.4,0.9-2.9,1.2
		c-1.5,0.4-2.6,0.8-3.1,1.2c-0.9,0.6-1.3,1.7-1.2,3.2c0.2,2-0.1,3.4-0.7,4.2c-0.4,0.4-1.2,0.8-2.4,1c-1.2,0.1-2,0.4-2.5,0.8
		c-0.8,0.7-1.2,2-1.2,3.9c0,1.1-0.9,3.6-2.7,7.5c-1.5,3.3-2.7,5.7-3.6,7c-0.1,0.1-0.1,0.1-0.1,0.1v0.9c2.6,0.2,5.1,0.5,7.7,0.8
		c10.1,1.4,19.8,4.4,29.2,9c10.1,5,17.3,10.9,21.5,17.6c0.7,1.1,1.9,2.9,3.6,5.2c0,0.1,0.1,0.2,0.1,0.2h0.5c0,0,0,0,0-0.1
		c0.2-3.3,1.2-6.4,2.8-9.4c2-3.4,4.5-5.3,7.4-5.7c2-0.2,3.1-1.2,3.4-3.2c0.4-3.2,0.8-5,1-5.6c0.4-0.8,1.8-1.5,4.3-2.2
		c2-0.6,3.1-1.6,3.1-3.1c0-2.5,0.2-4,0.5-4.8c0.2-0.4,0.7-0.7,1.4-0.8C109,187,110.2,184.3,111,179.3z M42.6,172.5
		c0.2,0,0.7-0.1,1.3-0.4c3.3,0,13.7,3.7,31.1,11.1c2.4,1.5,5.1,4.3,8,8.3c2.8,3.8,4.8,6.1,5.9,6.7c-1.1-0.6-3.1-2.9-5.9-6.7
		c-2.9-4-5.6-6.8-8-8.3c-17.4-7.4-27.8-11.1-31.1-11.1C43.3,172.4,42.8,172.5,42.6,172.5z M48.6,159.4h3
		c12.1,2.6,22.2,6.5,30.5,11.8c3.9,2.5,9.4,7.1,16.4,13.7c-7-6.6-12.5-11.2-16.4-13.7c-8.3-5.3-18.4-9.2-30.5-11.8H48.6z
		 M88.9,157.1c7.9,3.5,13.4,8,16.3,13.4C102.3,165.1,96.8,160.6,88.9,157.1c-4.2-1.9-14.4-5.4-30.5-10.3
		C74.5,151.7,84.7,155.2,88.9,157.1z"/>
	<path fill="#666666" d="M21,188.6c-0.3,0.1-0.5,0.4-0.5,0.9c0,3.1,0.9,5.6,2.8,7.7l0.6,0.4l4.8-7.3c-2.6-0.3-5.1-0.6-7.7-0.8V188.6
		c0,0,0,0,0.1-0.1C21,188.5,21,188.5,21,188.6z"/>
	<path fill="#F6AF95" d="M3.3,229.2c-0.8,2.7-1.3,5-1.3,7c0,3.4,1,6.4,2.9,9.1c1,1.5,3.8,4.5,8.3,9c5.1,5.2,13.2,7.7,24.3,7.7
		c3.2,0,6.5-0.6,9.7-1.7c3.6-1.2,5.9-2.7,7-4.5l0.2-0.6l20.8-31.8l4.2-6.5c-4.2-6.7-11.4-12.6-21.5-17.6c-9.4-4.6-19.1-7.6-29.2-9
		l-4.8,7.3L3.3,229.2z M12.8,229.4h2.7c7.2,1.4,13.6,3.5,19.2,6.4c6.6,3.3,11,7.3,13.2,11.8c-2.2-4.5-6.6-8.5-13.2-11.8
		c-5.6-2.9-12-5-19.2-6.4H12.8z"/>
	<path fill="#666666" d="M83.2,222.6l-0.2-0.5c-1.7-2.3-2.9-4.1-3.6-5.2l-4.2,6.5c0.1,0,1.5,0.4,4.4,1.2
		C80.3,224.6,81.5,224,83.2,222.6z"/>
	
		<line fill="none" stroke="#000000" stroke-width="4" stroke-linecap="round" stroke-linejoin="round" stroke-miterlimit="10" x1="145" y1="11" x2="144.8" y2="10"/>
	
		<line fill="none" stroke="#000000" stroke-width="4" stroke-linecap="round" stroke-linejoin="round" stroke-miterlimit="10" x1="144.8" y1="10" x2="166.8" y2="6.1"/>
	
		<polyline fill="none" stroke="#000000" stroke-width="4" stroke-linecap="round" stroke-linejoin="round" stroke-miterlimit="10" points="
		191.7,21.1 193.8,40 117,158 	"/>
	<path fill="none" stroke="#000000" stroke-width="4" stroke-linecap="round" stroke-linejoin="round" stroke-miterlimit="10" d="
		M166.8,6.1c9.7,7.3,18,12.3,24.9,15"/>
	<path fill="none" stroke="#000000" stroke-width="4" stroke-linecap="round" stroke-linejoin="round" stroke-miterlimit="10" d="
		M83.6,222.3c0,0,0,0,0-0.1c0.2-3.3,1.2-6.4,2.8-9.4c2-3.4,4.5-5.3,7.4-5.7c2-0.2,3.1-1.2,3.4-3.2c0.4-3.2,0.8-5,1-5.6
		c0.4-0.8,1.8-1.5,4.3-2.2c2-0.6,3.1-1.6,3.1-3.1c0-2.5,0.2-4,0.5-4.8c0.2-0.4,0.7-0.7,1.4-0.8c1.5-0.4,2.7-3.1,3.5-8.1
		c0.4-2.9,1.5-5.7,3.2-8.3c1-1.5,2.5-3.6,4.6-6.4"/>
	
		<line fill="none" stroke="#000000" stroke-width="4" stroke-linecap="round" stroke-linejoin="round" stroke-miterlimit="10" x1="119.6" y1="163.4" x2="117" y2="158"/>
	
		<polyline fill="none" stroke="#000000" stroke-width="4" stroke-linecap="round" stroke-linejoin="round" stroke-miterlimit="10" points="
		109.3,145.5 110.3,143.9 191.7,21.1 	"/>
	<path fill="none" stroke="#000000" stroke-width="4" stroke-linecap="round" stroke-linejoin="round" stroke-miterlimit="10" d="
		M109.3,145.5c-1.8-2.4-3.6-4.3-5.4-5.8c-4.7-4-10.6-6.9-17.8-8.5"/>
	<path fill="none" stroke="#000000" stroke-width="4" stroke-linecap="round" stroke-linejoin="round" stroke-miterlimit="10" d="
		M67.5,129.3h-0.1c-3.8,0-6.3,0.2-7.3,0.5"/>
	
		<polyline fill="none" stroke="#000000" stroke-width="4" stroke-linecap="round" stroke-linejoin="round" stroke-miterlimit="10" points="
		67.5,129.3 67.8,128.9 144.8,10 	"/>
	<path fill="none" stroke="#000000" stroke-width="4" stroke-linecap="round" stroke-linejoin="round" stroke-miterlimit="10" d="
		M86.1,131.2c-5.2-1.3-11.2-1.9-17.8-1.9h-0.8"/>
	<path fill="none" stroke="#000000" stroke-width="4" stroke-linecap="round" stroke-linejoin="round" stroke-miterlimit="10" d="
		M21.1,188.5c0.9-1.3,2.1-3.7,3.6-7c1.8-3.9,2.7-6.4,2.7-7.5c0-1.9,0.4-3.2,1.2-3.9c0.5-0.4,1.3-0.7,2.5-0.8c1.2-0.2,2-0.6,2.4-1
		c0.6-0.8,0.9-2.2,0.7-4.2c-0.1-1.5,0.3-2.6,1.2-3.2c0.5-0.4,1.6-0.8,3.1-1.2c1.5-0.3,2.4-0.8,2.9-1.2c0.8-0.8,1-2,0.6-3.7
		c-0.5-2.4,0.6-4.4,3.3-5.9c3.6-2,5.6-3.5,6-4.3c5.1-9.2,7.7-13.9,7.9-14.2"/>
	<path fill="none" stroke="#000000" stroke-width="4" stroke-linecap="round" stroke-linejoin="round" stroke-miterlimit="10" d="
		M88.9,198.2c-1.1-0.6-3.1-2.9-5.9-6.7c-2.9-4-5.6-6.8-8-8.3c-17.4-7.4-27.8-11.1-31.1-11.1c-0.6,0.3-1.1,0.4-1.3,0.4"/>
	<path fill="none" stroke="#000000" stroke-width="4" stroke-linecap="round" stroke-linejoin="round" stroke-miterlimit="10" d="
		M98.5,184.9c-7-6.6-12.5-11.2-16.4-13.7c-8.3-5.3-18.4-9.2-30.5-11.8h-3"/>
	<path fill="none" stroke="#000000" stroke-width="4" stroke-linecap="round" stroke-linejoin="round" stroke-miterlimit="10" d="
		M105.2,170.5c-2.9-5.4-8.4-9.9-16.3-13.4c-4.2-1.9-14.4-5.4-30.5-10.3"/>
	<path fill="none" stroke="#000000" stroke-width="4" stroke-linecap="round" stroke-linejoin="round" stroke-miterlimit="10" d="
		M23.3,197.2c-1.9-2.1-2.8-4.6-2.8-7.7c0-0.5,0.2-0.8,0.5-0.9c0-0.1,0-0.1,0.1-0.1"/>
	<path fill="none" stroke="#000000" stroke-width="4" stroke-linecap="round" stroke-linejoin="round" stroke-miterlimit="10" d="
		M28.7,190.3c-2.6-0.3-5.1-0.6-7.7-0.8v-0.9c0,0,0,0,0.1-0.1"/>
	<path fill="none" stroke="#000000" stroke-width="4" stroke-linecap="round" stroke-linejoin="round" stroke-miterlimit="10" d="
		M47.9,247.6c-2.2-4.5-6.6-8.5-13.2-11.8c-5.6-2.9-12-5-19.2-6.4h-2.7"/>
	<path fill="none" stroke="#000000" stroke-width="4" stroke-linecap="round" stroke-linejoin="round" stroke-miterlimit="10" d="
		M54.2,255.8c-1.1,1.8-3.4,3.3-7,4.5c-3.2,1.1-6.5,1.7-9.7,1.7c-11.1,0-19.2-2.5-24.3-7.7c-4.5-4.5-7.3-7.5-8.3-9
		C3,242.6,2,239.6,2,236.2c0-2,0.5-4.3,1.3-7l20.6-31.6l4.8-7.3"/>
	
		<polyline fill="none" stroke="#000000" stroke-width="4" stroke-linecap="round" stroke-linejoin="round" stroke-miterlimit="10" points="
		82.9,222.9 82.8,223 82.9,222.9 	"/>
	<path fill="none" stroke="#000000" stroke-width="4" stroke-linecap="round" stroke-linejoin="round" stroke-miterlimit="10" d="
		M83.6,222.3c-0.2,0.1-0.3,0.2-0.4,0.3c-1.7,1.4-2.9,2-3.6,2c-2.9-0.8-4.3-1.2-4.4-1.2"/>
	<path fill="none" stroke="#000000" stroke-width="4" stroke-linecap="round" stroke-linejoin="round" stroke-miterlimit="10" d="
		M83.1,222.3c0,0-0.1-0.1-0.1-0.2c-1.7-2.3-2.9-4.1-3.6-5.2"/>
	<path fill="none" stroke="#000000" stroke-width="4" stroke-linecap="round" stroke-linejoin="round" stroke-miterlimit="10" d="
		M82.9,222.9c0.2-0.2,0.4-0.4,0.7-0.6"/>
	
		<line fill="none" stroke="#000000" stroke-width="4" stroke-linecap="round" stroke-linejoin="round" stroke-miterlimit="10" x1="79.4" y1="216.9" x2="75.2" y2="223.4"/>
	
		<line fill="none" stroke="#000000" stroke-width="4" stroke-linecap="round" stroke-linejoin="round" stroke-miterlimit="10" x1="75.2" y1="223.4" x2="54.4" y2="255.2"/>
	<path fill="none" stroke="#000000" stroke-width="4" stroke-linecap="round" stroke-linejoin="round" stroke-miterlimit="10" d="
		M79.4,216.9c-4.2-6.7-11.4-12.6-21.5-17.6c-9.4-4.6-19.1-7.6-29.2-9"/>
	
		<line fill="none" stroke="#000000" stroke-width="4" stroke-linecap="round" stroke-linejoin="round" stroke-miterlimit="10" x1="86.1" y1="131.2" x2="166.8" y2="6.1"/>
	<path fill="none" stroke="#000000" stroke-width="4" stroke-linecap="round" stroke-linejoin="round" stroke-miterlimit="10" d="
		M117,158c-2.6-5-5.2-9.2-7.7-12.5"/>
</g>
</svg>
