<?xml version="1.0" encoding="utf-8"?>
<!-- Generator: Adobe Illustrator 16.0.4, SVG Export Plug-In . SVG Version: 6.00 Build 0)  -->
<!DOCTYPE svg PUBLIC "-//W3C//DTD SVG 1.1//EN" "http://www.w3.org/Graphics/SVG/1.1/DTD/svg11.dtd">
<svg version="1.1" id="Layer_1" xmlns="http://www.w3.org/2000/svg" xmlns:xlink="http://www.w3.org/1999/xlink" x="0px" y="0px"
	 width="140px" height="126px" viewBox="0 0 140 126" enable-background="new 0 0 140 126" xml:space="preserve">
<g>
	<g>
		<path fill="#AE9357" d="M13,5.3l-1.2,1.2C9.5,8.8,8,13.1,7.1,19.3C6.7,22.7,5.9,28,5,35.2v1.4l43-0.1V23.1h43.3v13.4l39-0.1
			c0-0.2,0-0.4,0-0.5c0.5-6.6-1.7-16.7-6.8-30.2l-0.4-0.4H13z"/>
		<path fill="#FFCC00" d="M130.5,43.3l5.3-0.5h0.3h0.1v-6.4h-5.9l-39,0.1v6.8H130.5z"/>
		<path fill="#FFCC00" d="M91.3,43.3v-6.8V23.1H48v13.4v6.8v30.9h43.3V43.3z M77.2,34.7c2.2,2.1,3.3,4.8,3.3,7.8
			c0,3.1-1.1,5.7-3.3,7.9c-0.9,0.9-2,1.7-3.2,2.3c1.2,2.8,2.8,6.4,4.6,10.8c0.1,0.1,0.2,0.3,0.2,0.4h-1.2
			c-4.8-0.1-10.5,0.2-17.1,0.9v-0.3c0.9-3,1.8-5.7,2.5-7.9c0.5-1.5,1-2.8,1.5-4.1c-1.1-0.5-2.1-1.2-3-2.1c-2.1-2.2-3.2-4.8-3.2-7.9
			c0-3,1.1-5.7,3.2-7.8c2.2-2.2,4.8-3.3,7.9-3.3C72.4,31.4,75,32.5,77.2,34.7z"/>
		<path d="M80.5,42.5c0-3-1.1-5.7-3.3-7.8c-2.2-2.2-4.8-3.3-7.8-3.3c-3.1,0-5.7,1.1-7.9,3.3c-2.1,2.1-3.2,4.8-3.2,7.8
			c0,3.1,1.1,5.7,3.2,7.9c0.9,0.9,1.9,1.6,3,2.1c0.9-2.5,2-4.8,3-6.7c-1,1.9-2.1,4.2-3,6.7c1.4,0.8,3,1.1,4.9,1.1
			c1.6,0,3.2-0.3,4.6-0.9c-1.7-4-2.7-6.4-3-7.2c0.3,0.8,1.3,3.2,3,7.2c1.2-0.6,2.3-1.4,3.2-2.3C79.4,48.2,80.5,45.6,80.5,42.5z"/>
		<path d="M64.5,52.5c-0.5,1.3-1,2.6-1.5,4.1c-0.7,2.2-1.6,4.9-2.5,7.9v0.3c6.6-0.7,12.3-1,17.1-0.9l1-0.4c-1.8-4.4-3.4-8-4.6-10.8
			c-1.4,0.6-3,0.9-4.6,0.9C67.5,53.6,65.9,53.3,64.5,52.5z"/>
		<path fill="#FFFFFF" d="M78.6,63.5l-1,0.4h1.2C78.8,63.8,78.7,63.6,78.6,63.5z"/>
		<path fill="#AE9357" d="M91.3,43.3v30.9H48V43.3H5.5v79.8l0.2,0.9h124.4l0.4-80.7H91.3z"/>
		<path fill="#FFCC00" d="M48,43.3v-6.8L5,36.6H2.1C2.1,41,2,43.2,2,43.3h0.5h3H48z"/>
		
			<line fill="none" stroke="#000000" stroke-width="4" stroke-linecap="round" stroke-linejoin="round" stroke-miterlimit="10" x1="123.1" y1="5.3" x2="13" y2="5.3"/>
		
			<line fill="none" stroke="#000000" stroke-width="4" stroke-linecap="round" stroke-linejoin="round" stroke-miterlimit="10" x1="130.5" y1="43.3" x2="135.8" y2="42.8"/>
		
			<polyline fill="none" stroke="#000000" stroke-width="4" stroke-linecap="round" stroke-linejoin="round" stroke-miterlimit="10" points="
			136.2,42.8 136.2,36.4 130.3,36.4 		"/>
		<path fill="none" stroke="#000000" stroke-width="4" stroke-linecap="round" stroke-linejoin="round" stroke-miterlimit="10" d="
			M130.3,36.4c0-0.2,0-0.4,0-0.5c0.5-6.6-1.7-16.7-6.8-30.2"/>
		
			<line fill="none" stroke="#000000" stroke-width="4" stroke-linecap="round" stroke-linejoin="round" stroke-miterlimit="10" x1="91.3" y1="43.3" x2="91.3" y2="36.5"/>
		
			<polyline fill="none" stroke="#000000" stroke-width="4" stroke-linecap="round" stroke-linejoin="round" stroke-miterlimit="10" points="
			91.3,36.5 91.3,23.1 48,23.1 48,36.5 		"/>
		
			<polyline fill="none" stroke="#000000" stroke-width="4" stroke-linecap="round" stroke-linejoin="round" stroke-miterlimit="10" points="
			48,43.3 48,74.2 91.3,74.2 91.3,43.3 		"/>
		
			<line fill="none" stroke="#000000" stroke-width="4" stroke-linecap="round" stroke-linejoin="round" stroke-miterlimit="10" x1="130.5" y1="43.3" x2="91.3" y2="43.3"/>
		
			<line fill="none" stroke="#000000" stroke-width="4" stroke-linecap="round" stroke-linejoin="round" stroke-miterlimit="10" x1="130.3" y1="36.4" x2="91.3" y2="36.5"/>
		
			<polyline fill="none" stroke="#000000" stroke-width="4" stroke-linecap="round" stroke-linejoin="round" stroke-miterlimit="10" points="
			5.7,124 130.1,124 130.5,43.3 		"/>
		
			<line fill="none" stroke="#000000" stroke-width="4" stroke-linecap="round" stroke-linejoin="round" stroke-miterlimit="10" x1="48" y1="36.5" x2="48" y2="43.3"/>
		<path fill="none" stroke="#000000" stroke-width="4" stroke-linecap="round" stroke-linejoin="round" stroke-miterlimit="10" d="
			M74,52.7c1.2-0.6,2.3-1.4,3.2-2.3c2.2-2.2,3.3-4.8,3.3-7.9c0-3-1.1-5.7-3.3-7.8c-2.2-2.2-4.8-3.3-7.8-3.3c-3.1,0-5.7,1.1-7.9,3.3
			c-2.1,2.1-3.2,4.8-3.2,7.8c0,3.1,1.1,5.7,3.2,7.9c0.9,0.9,1.9,1.6,3,2.1"/>
		<path fill="none" stroke="#000000" stroke-width="4" stroke-linecap="round" stroke-linejoin="round" stroke-miterlimit="10" d="
			M64.5,52.5c-0.5,1.3-1,2.6-1.5,4.1c-0.7,2.2-1.6,4.9-2.5,7.9v0.3c6.6-0.7,12.3-1,17.1-0.9h1.2c0-0.1-0.1-0.3-0.2-0.4
			c-1.8-4.4-3.4-8-4.6-10.8"/>
		<path fill="none" stroke="#000000" stroke-width="4" stroke-linecap="round" stroke-linejoin="round" stroke-miterlimit="10" d="
			M64.5,52.5c0.9-2.5,2-4.8,3-6.7"/>
		<path fill="none" stroke="#000000" stroke-width="4" stroke-linecap="round" stroke-linejoin="round" stroke-miterlimit="10" d="
			M74,52.7c-1.4,0.6-3,0.9-4.6,0.9c-1.9,0-3.5-0.3-4.9-1.1"/>
		<path fill="none" stroke="#000000" stroke-width="4" stroke-linecap="round" stroke-linejoin="round" stroke-miterlimit="10" d="
			M71,45.5c0.3,0.8,1.3,3.2,3,7.2"/>
		<path fill="none" stroke="#000000" stroke-width="4" stroke-linecap="round" stroke-linejoin="round" stroke-miterlimit="10" d="
			M11.8,6.5C9.5,8.8,8,13.1,7.1,19.3C6.7,22.7,5.9,28,5,35.2"/>
		<path fill="none" stroke="#000000" stroke-width="4" stroke-linecap="round" stroke-linejoin="round" stroke-miterlimit="10" d="
			M48,36.5L5,36.6H2.1C2.1,41,2,43.2,2,43.3"/>
		
			<line fill="none" stroke="#000000" stroke-width="4" stroke-linecap="round" stroke-linejoin="round" stroke-miterlimit="10" x1="2.5" y1="43.3" x2="5.5" y2="43.3"/>
		
			<line fill="none" stroke="#000000" stroke-width="4" stroke-linecap="round" stroke-linejoin="round" stroke-miterlimit="10" x1="5.5" y1="43.3" x2="48" y2="43.3"/>
		
			<line fill="none" stroke="#000000" stroke-width="4" stroke-linecap="round" stroke-linejoin="round" stroke-miterlimit="10" x1="5.5" y1="43.3" x2="5.5" y2="123.1"/>
	</g>
</g>
</svg>
