<?xml version="1.0" encoding="utf-8"?>
<!-- Generator: Adobe Illustrator 16.0.4, SVG Export Plug-In . SVG Version: 6.00 Build 0)  -->
<!DOCTYPE svg PUBLIC "-//W3C//DTD SVG 1.1//EN" "http://www.w3.org/Graphics/SVG/1.1/DTD/svg11.dtd">
<svg version="1.1" id="Layer_1" xmlns="http://www.w3.org/2000/svg" xmlns:xlink="http://www.w3.org/1999/xlink" x="0px" y="0px"
	 width="231px" height="100px" viewBox="0 0 231 100" enable-background="new 0 0 231 100" xml:space="preserve">
<g>
	<g>
		<path fill="#FFED00" d="M219.8,39.8c-2.2-3-4.2-5.1-6.1-6.6l-123,1.3C88.5,29,85.1,24,80.5,19.4C71.5,10.5,60.7,6,48,6
			s-23.5,4.5-32.5,13.4C6.5,28.5,2,39.3,2,52s4.5,23.5,13.5,32.5S35.3,98,48,98s23.5-4.5,32.5-13.5c4.5-4.5,7.9-9.4,10.1-14.8
			l0.3,0.2c1.4,0.1,4,0.1,7.8-0.2c1-1.9,2-4.1,3-6.7c0.8-1.7,1.3-2.7,1.8-3.2c0.7-0.7,3.7-1.1,9.1-1.1c1,0,3.3,0.7,6.8,2.2
			c0.1,0,0.8-0.5,2.1-1.6c1.7-1,3.1-1.5,4.2-1.5c1.4,3.5,2.9,5.4,4.6,5.6c0.7-1,1.2-2.2,1.7-3.6c0.5-1,1.3-1.5,2.3-1.5
			c0.5,0,2.3,0.1,5.3,0.2c0.9,0,1.7,0.5,2.3,1.3c0.7,0.9,1.3,1.3,1.7,1.3c0.2,0,1.2-0.6,2.8-1.9c1.7-1.3,2.7-1.9,3.2-1.9
			c0.1,0,0.8,0.7,2.2,2.3c1.5,1.5,2.9,2.3,4,2.3c0.1,0,0.8-0.9,2-2.7c1.4-1.8,2.3-2.7,2.6-2.7c0.4,0,1.1,0.4,2.2,1.1
			c1.2,0.7,2,1.1,2.5,1.1c0.6,0,3.8-0.3,9.6-0.9l-0.3-0.3h0.5v0.3l-0.1,0.1l2.6,2.7c0.7-0.7,1.8-2.3,3.4-4.6c0,0.2,0.1,0.3,0.2,0.3
			c1,3.2,2.5,4.8,4.5,4.8l6.4-0.5c1.5,0,2.6,0.1,3.3,0.1c0.3-0.2,1.2-1.9,2.7-5.2c0,0.2,0.1,0.3,0.2,0.3s0.6,1,1.5,2.8
			c0.8,1.4,1.4,2.3,1.9,2.5l0.2-0.2c0.1-0.9,0.6-2,1.3-3.3c0.5-0.8,1.1-1.8,1.9-3c1.5,2.7,5.3,4.1,11.3,4.1c2.3,0,4.1-1.1,5.3-3.1
			c0.7-1.3,2.3-4,4.5-8.1l-0.6-1C224.1,45.4,222.3,43.1,219.8,39.8z M10.8,48.1c0-2,0.6-4.2,1.7-6.3c1.4-2.6,3.1-3.9,4.9-3.9
			c5.4,0,8,3.8,8,11.4c0,1.5-0.7,3.2-2.1,5.3c-1.6,2.3-3.3,3.5-5,3.5c-2.4,0-4.3-1.2-5.8-3.5C11.4,52.7,10.8,50.5,10.8,48.1z
			 M36.6,15c11.5-1,21.3,1.8,29.4,8.2c8.5,6.9,12.8,16.2,12.8,28c0,9.2-3.6,17.4-10.8,24.5c-6.9,6.9-14.5,10.4-22.8,10.4
			c-2.7,0-4.6,0.1-5.6,0.4v-2.6c1.2-6.2,1.7-11.8,1.7-16.5c0-6.7-0.5-15.8-1.4-27.2C38.8,27.6,37.8,19.3,36.6,15z"/>
		<path fill="#FFED00" d="M66,23.2C57.9,16.8,48.1,14,36.6,15c1.2,4.3,2.2,12.6,3.3,25.2c0.9,11.4,1.4,20.5,1.4,27.2
			c0,4.7-0.5,10.3-1.7,16.5v2.6c1-0.3,2.9-0.4,5.6-0.4c8.3,0,15.9-3.5,22.8-10.4c7.2-7.1,10.8-15.3,10.8-24.5
			C78.8,39.4,74.5,30.1,66,23.2z"/>
		<path fill="none" stroke="#000000" stroke-width="4" stroke-linecap="round" stroke-linejoin="round" stroke-miterlimit="10" d="
			M226,47.5c-2.2,4.1-3.8,6.8-4.5,8.1c-1.2,2-3,3.1-5.3,3.1c-6,0-9.8-1.4-11.3-4.1c-0.8,1.2-1.4,2.2-1.9,3c-0.7,1.3-1.2,2.4-1.3,3.3
			l-0.2,0.2c-0.5-0.2-1.1-1.1-1.9-2.5c-0.9-1.8-1.4-2.8-1.5-2.8s-0.2-0.1-0.2-0.3c-1.5,3.3-2.4,5-2.7,5.2c-0.7,0-1.8-0.1-3.3-0.1
			l-6.4,0.5c-2,0-3.5-1.6-4.5-4.8c-0.1,0-0.2-0.1-0.2-0.3c-1.6,2.3-2.7,3.9-3.4,4.6l-2.6-2.7l-0.1-0.1"/>
		<path fill="none" stroke="#000000" stroke-width="4" stroke-linecap="round" stroke-linejoin="round" stroke-miterlimit="10" d="
			M174.7,57.8c0.1,0,0.2,0,0.2,0v-0.3h-0.5L174.7,57.8"/>
		<path fill="none" stroke="#000000" stroke-width="4" stroke-linecap="round" stroke-linejoin="round" stroke-miterlimit="10" d="
			M174.7,57.8c-5.8,0.6-9,0.9-9.6,0.9c-0.5,0-1.3-0.4-2.5-1.1c-1.1-0.7-1.8-1.1-2.2-1.1c-0.3,0-1.2,0.9-2.6,2.7
			c-1.2,1.8-1.9,2.7-2,2.7c-1.1,0-2.5-0.8-4-2.3c-1.4-1.6-2.1-2.3-2.2-2.3c-0.5,0-1.5,0.6-3.2,1.9c-1.6,1.3-2.6,1.9-2.8,1.9
			c-0.4,0-1-0.4-1.7-1.3c-0.6-0.8-1.4-1.3-2.3-1.3c-3-0.1-4.8-0.2-5.3-0.2c-1,0-1.8,0.5-2.3,1.5c-0.5,1.4-1,2.6-1.7,3.6
			c-1.7-0.2-3.2-2.1-4.6-5.6c-1.1,0-2.5,0.5-4.2,1.5c-1.3,1.1-2,1.6-2.1,1.6c-3.5-1.5-5.8-2.2-6.8-2.2c-5.4,0-8.4,0.4-9.1,1.1
			c-0.5,0.5-1,1.5-1.8,3.2c-1,2.6-2,4.8-3,6.7c-3.8,0.3-6.4,0.3-7.8,0.2"/>
		<path fill="none" stroke="#000000" stroke-width="4" stroke-linecap="round" stroke-linejoin="round" stroke-miterlimit="10" d="
			M12.5,41.8c1.4-2.6,3.1-3.9,4.9-3.9c5.4,0,8,3.8,8,11.4c0,1.5-0.7,3.2-2.1,5.3c-1.6,2.3-3.3,3.5-5,3.5c-2.4,0-4.3-1.2-5.8-3.5
			c-1.1-1.9-1.7-4.1-1.7-6.5C10.8,46.1,11.4,43.9,12.5,41.8"/>
		<path fill="none" stroke="#000000" stroke-width="4" stroke-linecap="round" stroke-linejoin="round" stroke-miterlimit="10" d="
			M66,23.2c8.5,6.9,12.8,16.2,12.8,28c0,9.2-3.6,17.4-10.8,24.5c-6.9,6.9-14.5,10.4-22.8,10.4c-2.7,0-4.6,0.1-5.6,0.4v-2.6
			c1.2-6.2,1.7-11.8,1.7-16.5c0-6.7-0.5-15.8-1.4-27.2c-1.1-12.6-2.1-20.9-3.3-25.2C48.1,14,57.9,16.8,66,23.2"/>
		<path fill="none" stroke="#000000" stroke-width="4" stroke-linecap="round" stroke-linejoin="round" stroke-miterlimit="10" d="
			M90.6,69.7C88.4,75.1,85,80,80.5,84.5C71.5,93.5,60.7,98,48,98s-23.5-4.5-32.5-13.5S2,64.7,2,52s4.5-23.5,13.5-32.6
			C24.5,10.5,35.3,6,48,6s23.5,4.5,32.5,13.4c4.6,4.6,8,9.6,10.2,15.1l123-1.3c1.9,1.5,3.9,3.6,6.1,6.6c2.5,3.3,4.3,5.6,5.6,6.7"/>
	</g>
</g>
</svg>
