<?xml version="1.0" encoding="utf-8"?>
<!-- Generator: Adobe Illustrator 16.0.4, SVG Export Plug-In . SVG Version: 6.00 Build 0)  -->
<!DOCTYPE svg PUBLIC "-//W3C//DTD SVG 1.1//EN" "http://www.w3.org/Graphics/SVG/1.1/DTD/svg11.dtd">
<svg version="1.1" id="Layer_1" xmlns="http://www.w3.org/2000/svg" xmlns:xlink="http://www.w3.org/1999/xlink" x="0px" y="0px"
	 width="133px" height="151px" viewBox="0 0 133 151" enable-background="new 0 0 133 151" xml:space="preserve">
<g>
	<g>
		<path fill="#AE9675" d="M65.8,14.5c4.1-0.2,8-0.4,11.7-0.6c-0.8-4.9-1.3-7.8-1.3-8.6C73.9,5.8,65.4,6,50.6,6l0.4,9.2
			C55.5,15,60.5,14.7,65.8,14.5z"/>
		<path fill="#AE9675" d="M77.5,13.9c-3.7,0.2-7.6,0.4-11.7,0.6C60.5,14.7,55.5,15,51,15.2c-2.4,0.1-4.7,0.2-6.9,0.3
			c-18.6,0.9-30.2,1.4-34.8,1.6c-0.1,0-0.2,0-0.4,0l-0.2,0.3c0.1,2.5,0.3,5.2,0.5,7.9c1.1,14.9,3,33.5,5.8,55.7
			c1.7-0.2,12.6-0.9,32.6-2c17.9-1,43.3-2.5,76.1-4.2c1.5-0.1,3-0.2,4.5-0.3c-0.4-6-1.5-16.6-3.2-31.7c-1.7-14.4-2.5-21.6-2.5-21.8
			c0.1-4.8,0-7.6-0.4-8.4l-0.4-0.1C112.6,12.5,97.9,13,77.5,13.9z M103.4,37.4c1.6-0.5,3.8-0.7,6.7-0.7v-0.5v0.5
			C107.2,36.7,105,36.9,103.4,37.4c-1.5,0.4-2.8,0.7-3.7,0.7c-1.8-0.7-3-1-3.8-1c-3.6,1.9-6.3,2.8-8.1,2.8c-4-0.9-6.5-1.4-7.6-1.4
			c-9.2,2.2-14.3,3.3-15.5,3.3c-6.7,0.3-11.5,0.5-14.4,0.5c2.9,0,7.7-0.2,14.4-0.5c1.2,0,6.3-1.1,15.5-3.3c1.1,0,3.6,0.5,7.6,1.4
			c1.8,0,4.5-0.9,8.1-2.8c0.8,0,2,0.3,3.8,1C100.6,38.1,101.9,37.8,103.4,37.4z M87.2,26.5c0.9,0,2.6,0.5,5,1.4
			c1.8,0,4.7-0.2,8.8-0.5c1,0,2.9-0.5,5.8-1.6c2.9-1.1,4.8-1.6,5.6-1.6c-0.8,0-2.7,0.5-5.6,1.6c-2.9,1.1-4.8,1.6-5.8,1.6
			c-4.1,0.3-7,0.5-8.8,0.5C89.8,27,88.1,26.5,87.2,26.5c-3.6,1.6-5.7,2.3-6.6,2.3c-1.1,0-2.2-0.3-3.5-0.9c-1.2-0.6-2-0.9-2.2-0.9
			c-1.8,0.9-3.8,1.3-6,1.3c-1.5,0-3.6-0.3-6.4-0.9s-4.5-0.9-5-0.9c-4,0.3-7.1,0.5-9.5,0.5c-2.1,0-3.8,0.6-5.2,1.8
			c-1.4,1.3-3.5,1.9-6.2,1.9c-4.6-0.7-7.3-1-8-1c-1.1,0-3,1.1-5.6,3.3c2.6-2.2,4.5-3.3,5.6-3.3c0.7,0,3.4,0.3,8,1
			c2.7,0,4.8-0.6,6.2-1.9c1.4-1.2,3.1-1.8,5.2-1.8c2.4,0,5.5-0.2,9.5-0.5c0.5,0,2.2,0.3,5,0.9s4.9,0.9,6.4,0.9c2.2,0,4.2-0.4,6-1.3
			c0.2,0,1,0.3,2.2,0.9c1.3,0.6,2.4,0.9,3.5,0.9C81.5,28.8,83.6,28.1,87.2,26.5z M90.2,63.3c3.6-0.4,6.7-0.7,9.5-0.7
			c2.2,0,4.8-0.2,7.6-0.7c2.8-0.4,6-0.7,9.7-0.7c-3.7,0-6.9,0.3-9.7,0.7c-2.8,0.5-5.4,0.7-7.6,0.7C96.9,62.6,93.8,62.9,90.2,63.3
			c-3.4,0.5-6.6,0.7-9.8,0.7c-0.1,0-0.3,0-0.4,0c0.1,0,0.3,0,0.4,0C83.6,64,86.8,63.8,90.2,63.3z M87.8,53.4c1.8-0.6,6-1.2,12.5-2
			c5.7-0.6,10.6-1.9,14.9-3.6c-4.3,1.7-9.2,3-14.9,3.6C93.8,52.2,89.6,52.8,87.8,53.4h-3.7c0.4-0.4,0.5-0.7,0.5-1
			c0,0.3-0.1,0.6-0.5,1H87.8z M44.8,69.1c1.5,0,5.5-0.4,12-1.2c6.5-0.7,10.5-1.1,12.1-1.1c-1.6,0-5.6,0.4-12.1,1.1
			C50.3,68.7,46.3,69.1,44.8,69.1c-5-0.6-7.8-0.9-8.6-0.9c-1.3,0-3.6,0.3-7,0.8c-3.1,0.5-4.8,0.9-5.3,1c0.5-0.1,2.2-0.5,5.3-1
			c3.4-0.5,5.7-0.8,7-0.8C37,68.2,39.8,68.5,44.8,69.1z M46.4,55.3c2.2-1.3,3.7-1.9,4.4-1.9c7.5,1.8,11.6,2.7,12.2,2.7
			c1.9,0,5.7-0.6,11.4-1.8c-5.7,1.2-9.5,1.8-11.4,1.8c-0.6,0-4.7-0.9-12.2-2.7C50.1,53.4,48.6,54,46.4,55.3
			c-2.1,1.2-3.8,1.8-4.8,1.8c-7-0.6-10.9-1-11.6-1c-2.3,0-3.9,0.2-4.9,0.4c-0.5,0.2-1.6,0.7-3.5,1.5c1.9-0.8,3-1.3,3.5-1.5
			c1-0.2,2.6-0.4,4.9-0.4c0.7,0,4.6,0.4,11.6,1C42.6,57.1,44.3,56.5,46.4,55.3z M21.6,45.5V45c1.9,0,8.4-0.6,19.5-1.8
			C30,44.4,23.5,45,21.6,45V45.5z"/>
		<path fill="#AA7A4F" d="M51,15.2L50.6,6c-3.5,2.7-5.7,4.4-6.5,5.4v4.1C46.3,15.4,48.6,15.3,51,15.2z"/>
		<path fill="#AA7A4F" d="M54.3,86l28.3-1.3l20.4-1c3.7-0.2,7.7-0.5,11.9-1.1c5.4-0.7,8.5-1.5,9.1-2.4c1-1.4,1.8-2.6,2.5-3.5
			l-2.8-1.9C90.9,76.5,65.5,78,47.6,79c-20,1.1-30.9,1.8-32.6,2c-3.4,4.2-5.7,6.5-6.7,7.1l39.8-1.8L54.3,86z"/>
		<path fill="#AE9675" d="M82.6,84.7L54.3,86c3.4,22.7,5,41.9,5,57.6l0.3,1c3.8-0.7,6.2-1,6.9-1c2,0,5.4,0.3,10.4,0.8
			c1,0,4.1,0.7,9.3,2.3l2.2,0.6C88.4,123.3,86.5,102.4,82.6,84.7z"/>
		<path fill="#AA7A4F" d="M54.3,86l-6.2,0.3c0,0.2,0,0.2,0,0.3c0.4,3.7,1.6,13.2,3.6,28.6c1.1,8.4,1.9,18.4,2.3,30.2
			c1.4-0.2,2.9-0.4,4.4-0.6c0.4-0.1,0.8-0.1,1.1-0.2l-0.2-1C59.3,127.9,57.7,108.7,54.3,86z"/>
		<path fill="#AA7A4F" d="M8.7,17.4l-3.6,4.8c-1.5,1.9-2.3,3.1-2.3,3.6c0,0.6-0.2,3.3-0.8,8C2,39.2,3.8,55.2,7.4,82
			c0.3,1.9,0.6,4,0.9,6.1c1-0.6,3.3-2.9,6.7-7.1c-2.8-22.2-4.7-40.8-5.8-55.7C9,22.6,8.8,19.9,8.7,17.4z"/>
		<path fill="none" stroke="#000000" stroke-width="4" stroke-linecap="round" stroke-linejoin="round" stroke-miterlimit="10" d="
			M77.5,13.9c-3.7,0.2-7.6,0.4-11.7,0.6C60.5,14.7,55.5,15,51,15.2"/>
		<path fill="none" stroke="#000000" stroke-width="4" stroke-linecap="round" stroke-linejoin="round" stroke-miterlimit="10" d="
			M77.5,13.9c-0.8-4.9-1.3-7.8-1.3-8.6C73.9,5.8,65.4,6,50.6,6"/>
		
			<line fill="none" stroke="#000000" stroke-width="4" stroke-linecap="round" stroke-linejoin="round" stroke-miterlimit="10" x1="50.6" y1="6" x2="51" y2="15.2"/>
		<path fill="none" stroke="#000000" stroke-width="4" stroke-linecap="round" stroke-linejoin="round" stroke-miterlimit="10" d="
			M51,15.2c-2.4,0.1-4.7,0.2-6.9,0.3"/>
		<path fill="none" stroke="#000000" stroke-width="4" stroke-linecap="round" stroke-linejoin="round" stroke-miterlimit="10" d="
			M44.1,15.5v-4.1c0.8-1,3-2.7,6.5-5.4"/>
		<path fill="none" stroke="#000000" stroke-width="4" stroke-linecap="round" stroke-linejoin="round" stroke-miterlimit="10" d="
			M128.2,74.5c-0.4-6-1.5-16.6-3.2-31.7c-1.7-14.4-2.5-21.6-2.5-21.8c0.1-4.8,0-7.6-0.4-8.4"/>
		<path fill="none" stroke="#000000" stroke-width="4" stroke-linecap="round" stroke-linejoin="round" stroke-miterlimit="10" d="
			M121.7,12.5c-9.1,0-23.8,0.5-44.2,1.4"/>
		<path fill="none" stroke="#000000" stroke-width="4" stroke-linecap="round" stroke-linejoin="round" stroke-miterlimit="10" d="
			M110.1,36.2v0.5c-2.9,0-5.1,0.2-6.7,0.7c-1.5,0.4-2.8,0.7-3.7,0.7c-1.8-0.7-3-1-3.8-1c-3.6,1.9-6.3,2.8-8.1,2.8
			c-4-0.9-6.5-1.4-7.6-1.4c-9.2,2.2-14.3,3.3-15.5,3.3c-6.7,0.3-11.5,0.5-14.4,0.5"/>
		<path fill="none" stroke="#000000" stroke-width="4" stroke-linecap="round" stroke-linejoin="round" stroke-miterlimit="10" d="
			M112.4,24.2c-0.8,0-2.7,0.5-5.6,1.6c-2.9,1.1-4.8,1.6-5.8,1.6c-4.1,0.3-7,0.5-8.8,0.5c-2.4-0.9-4.1-1.4-5-1.4
			c-3.6,1.6-5.7,2.3-6.6,2.3c-1.1,0-2.2-0.3-3.5-0.9c-1.2-0.6-2-0.9-2.2-0.9c-1.8,0.9-3.8,1.3-6,1.3c-1.5,0-3.6-0.3-6.4-0.9
			s-4.5-0.9-5-0.9c-4,0.3-7.1,0.5-9.5,0.5c-2.1,0-3.8,0.6-5.2,1.8c-1.4,1.3-3.5,1.9-6.2,1.9c-4.6-0.7-7.3-1-8-1
			c-1.1,0-3,1.1-5.6,3.3"/>
		<path fill="none" stroke="#000000" stroke-width="4" stroke-linecap="round" stroke-linejoin="round" stroke-miterlimit="10" d="
			M117,61.2c-3.7,0-6.9,0.3-9.7,0.7c-2.8,0.5-5.4,0.7-7.6,0.7c-2.8,0-5.9,0.3-9.5,0.7c-3.4,0.5-6.6,0.7-9.8,0.7c-0.1,0-0.3,0-0.4,0"
			/>
		<path fill="none" stroke="#000000" stroke-width="4" stroke-linecap="round" stroke-linejoin="round" stroke-miterlimit="10" d="
			M115.2,47.8c-4.3,1.7-9.2,3-14.9,3.6c-6.5,0.8-10.7,1.4-12.5,2h-3.7c0.4-0.4,0.5-0.7,0.5-1"/>
		<path fill="none" stroke="#000000" stroke-width="4" stroke-linecap="round" stroke-linejoin="round" stroke-miterlimit="10" d="
			M68.9,66.8c-1.6,0-5.6,0.4-12.1,1.1c-6.5,0.8-10.5,1.2-12,1.2c-5-0.6-7.8-0.9-8.6-0.9c-1.3,0-3.6,0.3-7,0.8
			c-3.1,0.5-4.8,0.9-5.3,1"/>
		<path fill="none" stroke="#000000" stroke-width="4" stroke-linecap="round" stroke-linejoin="round" stroke-miterlimit="10" d="
			M74.4,54.3c-5.7,1.2-9.5,1.8-11.4,1.8c-0.6,0-4.7-0.9-12.2-2.7c-0.7,0-2.2,0.6-4.4,1.9c-2.1,1.2-3.8,1.8-4.8,1.8
			c-7-0.6-10.9-1-11.6-1c-2.3,0-3.9,0.2-4.9,0.4c-0.5,0.2-1.6,0.7-3.5,1.5"/>
		
			<line fill="none" stroke="#000000" stroke-width="4" stroke-linecap="round" stroke-linejoin="round" stroke-miterlimit="10" x1="82.6" y1="84.7" x2="54.3" y2="86"/>
		
			<line fill="none" stroke="#000000" stroke-width="4" stroke-linecap="round" stroke-linejoin="round" stroke-miterlimit="10" x1="48.1" y1="86.3" x2="54.3" y2="86"/>
		<path fill="none" stroke="#000000" stroke-width="4" stroke-linecap="round" stroke-linejoin="round" stroke-miterlimit="10" d="
			M54,145.4c-0.4-11.8-1.2-21.8-2.3-30.2c-2-15.4-3.2-24.9-3.6-28.6c0-0.1,0-0.1,0-0.3"/>
		<path fill="none" stroke="#000000" stroke-width="4" stroke-linecap="round" stroke-linejoin="round" stroke-miterlimit="10" d="
			M82.6,84.7l20.4-1c3.7-0.2,7.7-0.5,11.9-1.1c5.4-0.7,8.5-1.5,9.1-2.4c1-1.4,1.8-2.6,2.5-3.5c0.9-1.2,1.4-1.9,1.7-2.2"/>
		<path fill="none" stroke="#000000" stroke-width="4" stroke-linecap="round" stroke-linejoin="round" stroke-miterlimit="10" d="
			M128.2,74.5c-1.5,0.1-3,0.2-4.5,0.3C90.9,76.5,65.5,78,47.6,79c-20,1.1-30.9,1.8-32.6,2"/>
		<path fill="none" stroke="#000000" stroke-width="4" stroke-linecap="round" stroke-linejoin="round" stroke-miterlimit="10" d="
			M44.1,15.5c-18.6,0.9-30.2,1.4-34.8,1.6c-0.1,0-0.2,0-0.4,0"/>
		<path fill="none" stroke="#000000" stroke-width="4" stroke-linecap="round" stroke-linejoin="round" stroke-miterlimit="10" d="
			M8.3,88.1C8,86,7.7,83.9,7.4,82C3.8,55.2,2,39.2,2,33.8c0.6-4.7,0.8-7.4,0.8-8c0-0.5,0.8-1.7,2.3-3.6l3.6-4.8
			c0.1,2.5,0.3,5.2,0.5,7.9c1.1,14.9,3,33.5,5.8,55.7"/>
		<path fill="none" stroke="#000000" stroke-width="4" stroke-linecap="round" stroke-linejoin="round" stroke-miterlimit="10" d="
			M41.1,43.2C30,44.4,23.5,45,21.6,45v0.5"/>
		<path fill="none" stroke="#000000" stroke-width="4" stroke-linecap="round" stroke-linejoin="round" stroke-miterlimit="10" d="
			M8.3,88.1c1-0.6,3.3-2.9,6.7-7.1"/>
		<path fill="none" stroke="#000000" stroke-width="4" stroke-linecap="round" stroke-linejoin="round" stroke-miterlimit="10" d="
			M88.4,147.3l-2.2-0.6c-5.2-1.6-8.3-2.3-9.3-2.3c-5-0.5-8.4-0.8-10.4-0.8c-0.7,0-3.1,0.3-6.9,1c-0.1,0-0.1,0-0.1,0
			c-0.3,0.1-0.7,0.1-1.1,0.2c-1.5,0.2-3,0.4-4.4,0.6"/>
		<path fill="none" stroke="#000000" stroke-width="4" stroke-linecap="round" stroke-linejoin="round" stroke-miterlimit="10" d="
			M108.3,146.6c-3.6-1.1-6.7-1-9.6,0.2c-2.4,1.4-4.1,2.2-5,2.2l-5.3-1.7"/>
		<path fill="none" stroke="#000000" stroke-width="4" stroke-linecap="round" stroke-linejoin="round" stroke-miterlimit="10" d="
			M54,145.4c-3,0.3-5.8,0.5-8.5,0.5"/>
		
			<line fill="none" stroke="#000000" stroke-width="4" stroke-linecap="round" stroke-linejoin="round" stroke-miterlimit="10" x1="48.1" y1="86.3" x2="8.3" y2="88.1"/>
		<path fill="none" stroke="#000000" stroke-width="4" stroke-linecap="round" stroke-linejoin="round" stroke-miterlimit="10" d="
			M54.3,86c3.4,22.7,5,41.9,5,57.6"/>
		<path fill="none" stroke="#000000" stroke-width="4" stroke-linecap="round" stroke-linejoin="round" stroke-miterlimit="10" d="
			M88.4,147.3c0-24-1.9-44.9-5.8-62.6"/>
	</g>
</g>
</svg>
