<?xml version="1.0" encoding="utf-8"?>
<!-- Generator: Adobe Illustrator 16.0.4, SVG Export Plug-In . SVG Version: 6.00 Build 0)  -->
<!DOCTYPE svg PUBLIC "-//W3C//DTD SVG 1.1//EN" "http://www.w3.org/Graphics/SVG/1.1/DTD/svg11.dtd">
<svg version="1.1" id="Layer_1" xmlns="http://www.w3.org/2000/svg" xmlns:xlink="http://www.w3.org/1999/xlink" x="0px" y="0px"
	 width="294px" height="296px" viewBox="0 0 294 296" enable-background="new 0 0 294 296" xml:space="preserve">
<g>
	<g id="XMLID_1_">
		<g>
			<path fill="#FFFF00" d="M145.6,6.9c39.6,0,73.4,14,101.5,42c28,28.1,42,61.9,42,101.5c0,26.6-6.3,50.5-18.8,71.899l-1.1-0.6
				l-53-31l-1.4-0.9c0.5-1,1.101-2,1.601-3c0,0,0,0,0-0.1c0,0,0,0,0.1,0c5.4-10.7,8.1-22.5,8.1-35.5c0-21.8-7.699-40.4-23.1-55.9
				c-14.2-14.1-31-21.8-50.6-22.9c-1.7-0.1-3.5-0.2-5.2-0.2h-0.3h-0.1c0,0-0.1,0-0.2,0l0.1-62.5L145.6,6.9z"/>
			<path fill="#0000FF" d="M76.4,189.4c0.9,1.6,1.9,3.199,2.9,4.8c0,0.1,0,0.1,0.1,0.1c2.9,4.4,6.4,8.7,10.4,12.7
				c15.5,15.5,34.1,23.1,55.9,23.1c21.8,0,40.399-7.6,55.8-23.1c3.7-3.7,7-7.6,9.8-11.7l0.101-0.1c1.199-1.8,2.3-3.601,3.399-5.4
				l1.4,0.9l53,31l1.1,0.6c-0.1,0-0.1,0-0.1,0c-6.2,10.5-13.9,20.4-23.101,29.601C219,280,185.2,294,145.6,294
				c-39.7,0-73.5-14-101.5-42.1C34.8,242.6,27,232.7,20.8,222.1l2.4-1.399l51-30L76.4,189.4z"/>
			<path fill="#999999" d="M150.7,100.6c11.6,1,21.7,5.8,30.2,14.3c9.699,9.8,14.6,21.5,14.6,35.3c0,8.1-1.7,15.6-5.1,22.3
				c-1.301,2.4-2.7,4.7-4.301,7c-1.6,2-3.3,4-5.199,5.9c-9.801,9.8-21.5,14.6-35.3,14.6s-25.5-4.8-35.2-14.6
				c-2.2-2.101-4.1-4.4-5.8-6.801c-1.5-2.1-2.8-4.3-3.9-6.6c-3.3-6.6-4.9-13.8-4.9-21.8c0-13.8,4.8-25.5,14.6-35.3
				c8.5-8.5,18.7-13.3,30.4-14.4c1.5-0.1,3.2-0.2,4.8-0.2C147.3,100.3,149.1,100.4,150.7,100.6z"/>
			<path fill="#666666" d="M191.5,173l22.7,12.7l2.2,1.1c-0.5,1-1.101,2-1.601,3c-1.1,1.8-2.2,3.601-3.399,5.4l-2.2-1.4l-22.7-14
				l-0.4-0.3c1.601-2.3,3-4.6,4.301-7L191.5,173z"/>
			<path fill="#666666" d="M150.8,73.4v25.4l-0.1,1.8c-1.601-0.2-3.4-0.3-5.1-0.3c-1.6,0-3.3,0.1-4.8,0.2l-0.1-1.1V73.2h0.1l4.5-0.9
				l0.08,0.02L150.8,73.4z"/>
			<path fill="#666666" d="M79.3,194.2c-1-1.601-2-3.2-2.9-4.8c-0.6-1-1.1-2-1.6-2.9c0-0.1,0-0.1,0-0.1l1.4-0.7l23-13l1.5-0.7
				c1.1,2.3,2.4,4.5,3.9,6.6l-1.4,1.101l-23,14L79.3,194.2z"/>
			<path fill="#FF0000" d="M23.2,220.7l-2.4,1.399C8.3,200.8,2,176.9,2,150.4C2,110.8,16,77,44.1,48.9C72,21,105.7,7,145.1,6.9
				l0.1,2.8l-0.1,62.5c-1.5,0-3,0.1-4.4,0.2c-19.7,1.1-36.6,8.7-50.9,22.9c-15.4,15.5-23.1,34.1-23.1,55.9c0,12.8,2.7,24.5,8,35.1
				c0,0.101,0,0.101,0.1,0.101c0,0,0,0,0,0.1c0.5,0.9,1,1.9,1.6,2.9l-2.2,1.3L23.2,220.7z"/>
		</g>
		<g>
			<path fill="none" stroke="#000000" stroke-width="4" stroke-linecap="round" stroke-linejoin="round" stroke-miterlimit="10" d="
				M145.6,6.9c39.6,0,73.4,14,101.5,42c28,28.1,42,61.9,42,101.5c0,26.6-6.3,50.5-18.8,71.899c-0.1,0-0.1,0-0.1,0
				c-6.2,10.5-13.9,20.4-23.101,29.601C219,280,185.2,294,145.6,294c-39.7,0-73.5-14-101.5-42.1C34.8,242.6,27,232.7,20.8,222.1
				C8.3,200.8,2,176.9,2,150.4C2,110.8,16,77,44.1,48.9C72,21,105.7,7,145.1,6.9C145.3,6.9,145.4,6.9,145.6,6.9"/>
			<path fill="none" stroke="#000000" stroke-width="4" stroke-linecap="round" stroke-linejoin="round" stroke-miterlimit="10" d="
				M145.4,72.2h0.3c1.7,0,3.5,0.1,5.2,0.2c19.6,1.1,36.399,8.8,50.6,22.9c15.4,15.5,23.1,34.1,23.1,55.9c0,13-2.699,24.8-8.1,35.5
				c-0.1,0-0.1,0-0.1,0c0,0.1,0,0.1,0,0.1c-0.5,1-1.101,2-1.601,3c-1.1,1.8-2.2,3.601-3.399,5.4l-0.101,0.1
				c-2.8,4.101-6.1,8-9.8,11.7c-15.4,15.5-34,23.1-55.8,23.1c-21.8,0-40.4-7.6-55.9-23.1c-4-4-7.5-8.3-10.4-12.7
				c-0.1,0-0.1,0-0.1-0.1c-1-1.601-2-3.2-2.9-4.8c-0.6-1-1.1-2-1.6-2.9c0-0.1,0-0.1,0-0.1c-0.1,0-0.1,0-0.1-0.101
				c-5.3-10.6-8-22.3-8-35.1c0-21.8,7.7-40.4,23.1-55.9c14.3-14.2,31.2-21.8,50.9-22.9c1.4-0.1,2.9-0.2,4.4-0.2"/>
			<path fill="none" stroke="#000000" stroke-width="4" stroke-linecap="round" stroke-linejoin="round" stroke-miterlimit="10" d="
				M145.1,72.2c0.1,0,0.2,0,0.2,0"/>
			<path fill="none" stroke="#000000" stroke-width="4" stroke-linecap="round" stroke-linejoin="round" stroke-miterlimit="10" d="
				M145.6,100.3c-1.6,0-3.3,0.1-4.8,0.2c-11.7,1.1-21.9,5.9-30.4,14.4c-9.8,9.8-14.6,21.5-14.6,35.3c0,8,1.6,15.2,4.9,21.8
				c1.1,2.3,2.4,4.5,3.9,6.6c1.7,2.4,3.6,4.7,5.8,6.801c9.7,9.8,21.4,14.6,35.2,14.6s25.5-4.8,35.3-14.6
				c1.899-1.9,3.6-3.9,5.199-5.9c1.601-2.3,3-4.6,4.301-7c3.399-6.7,5.1-14.2,5.1-22.3c0-13.8-4.9-25.5-14.6-35.3
				c-8.5-8.5-18.601-13.3-30.2-14.3C149.1,100.4,147.3,100.3,145.6,100.3"/>
			
				<line fill="none" stroke="#000000" stroke-width="4" stroke-linecap="round" stroke-linejoin="round" stroke-miterlimit="10" x1="150.8" y1="98.8" x2="150.8" y2="73.4"/>
			
				<line fill="none" stroke="#000000" stroke-width="4" stroke-linecap="round" stroke-linejoin="round" stroke-miterlimit="10" x1="140.7" y1="73.2" x2="140.7" y2="99.4"/>
			
				<line fill="none" stroke="#000000" stroke-width="4" stroke-linecap="round" stroke-linejoin="round" stroke-miterlimit="10" x1="145.2" y1="9.7" x2="145.1" y2="72.2"/>
			
				<line fill="none" stroke="#000000" stroke-width="4" stroke-linecap="round" stroke-linejoin="round" stroke-miterlimit="10" x1="216.2" y1="190.7" x2="269.2" y2="221.7"/>
			
				<line fill="none" stroke="#000000" stroke-width="4" stroke-linecap="round" stroke-linejoin="round" stroke-miterlimit="10" x1="209.2" y1="193.8" x2="186.5" y2="179.8"/>
			
				<line fill="none" stroke="#000000" stroke-width="4" stroke-linecap="round" stroke-linejoin="round" stroke-miterlimit="10" x1="214.2" y1="185.7" x2="191.5" y2="173"/>
			
				<line fill="none" stroke="#000000" stroke-width="4" stroke-linecap="round" stroke-linejoin="round" stroke-miterlimit="10" x1="80.2" y1="193.7" x2="103.2" y2="179.7"/>
			
				<line fill="none" stroke="#000000" stroke-width="4" stroke-linecap="round" stroke-linejoin="round" stroke-miterlimit="10" x1="99.2" y1="172.7" x2="76.2" y2="185.7"/>
			
				<line fill="none" stroke="#000000" stroke-width="4" stroke-linecap="round" stroke-linejoin="round" stroke-miterlimit="10" x1="23.2" y1="220.7" x2="74.2" y2="190.7"/>
		</g>
	</g>
</g>
</svg>
